<?xml version="1.0" encoding="UTF-8"?>
<svg viewBox="0 0 232.5 156.25" xmlns="http://www.w3.org/2000/svg">
 <g transform="matrix(1.25,0,0,-1.25,0,156.25)">
  <g transform="scale(.24)">
   <path d="m117.25 483.25s5.344 2.438 8 6c3.484 3.805 5.566 9.359 8 10 3.121 0.75 7.984 4.918 10 7 2.148 2.082 7.703 2.777 10 3 1.871 1.168 8.816 1.859 11 2 1.984-0.141 4-3 4-3l6-1v-3l-5-36-52 15" fill="#f5f2e6"/>
   <path d="m117.25 483.25s5.344 2.438 8 6c3.484 3.805 5.566 9.359 8 10 3.121 0.75 7.984 4.918 10 7 2.148 2.082 7.703 2.777 10 3 1.871 1.168 8.816 1.859 11 2 1.984-0.141 4-3 4-3l6-1v-3l-5-36-52 15z" fill="none" stroke="#000" stroke-width="2.0833"/>
   <path d="m43.25,349.25c0,0 2.8438-3.418 7-2 4.1758.668 9.3867.668 13,4 2.6367,2.918 5.7617,9.168 11,9 5.1758.168 12,10 12,10l-10,6-33-27" fill="#dbd6d1"/>
   <path d="m43.25,349.25c0,0 2.8438-3.418 7-2 4.1758.668 9.3867.668 13,4 2.6367,2.918 5.7617,9.168 11,9 5.1758.168 12,10 12,10l-10,6-33-27z" fill="none" stroke="#000" stroke-width="2.0833"/>
   <path d="m602.25 36.25c2.441 7.7813 3 19 3 19s11.676 8.293 12 11c-0.324 3.543-4.488 11.875-2 15 1.676 3.125 26.984 58.074 27 65-2.406 30.832-2 75-2 75l-71-1s38.301-21.293 36-91c-0.422-21.547-9.156-44.875-14-52 0 0-5.574-19.957-12-24 0 0-3.797-6.3086-8-13l31-4" fill="#dbd6d1"/>
   <path d="m602.25 36.25c2.441 7.7813 3 19 3 19s11.676 8.293 12 11c-0.324 3.543-4.488 11.875-2 15 1.676 3.125 26.984 58.074 27 65-2.406 30.832-2 75-2 75l-71-1s38.301-21.293 36-91c-0.422-21.547-9.156-44.875-14-52 0 0-5.574-19.957-12-24 0 0-3.797-6.3086-8-13l31-4z" fill="none" stroke="#000" stroke-width="2.0833"/>
   <path d="m297.25,165.25 9-43c0,0-5.551-4.98 10-20 4.844-5.375 15.262-25.168 13-37-2.324-13.375-12.309-30.7461-9-32 7.664-2.875 34.582-2.8711 36,2 3.387,9.543-6.996,11.875-5,16 2.102,3.707 7.488.8555 6,8-.883,7.3945-8.309,7.5352-10,17-1.922,9.0508-2.258,26.707-2,30-.137,3.293.316,13.781-1,19-1.797,4.719-9,17-9,17l-6,76-51-12 19-41" fill="#dbd6d1"/>
   <path d="m297.25,165.25 9-43c0,0-5.551-4.98 10-20 4.844-5.375 15.262-25.168 13-37-2.324-13.375-12.309-30.7461-9-32 7.664-2.875 34.582-2.8711 36,2 3.387,9.543-6.996,11.875-5,16 2.102,3.707 7.488.8555 6,8-.883,7.3945-8.309,7.5352-10,17-1.922,9.0508-2.258,26.707-2,30-.137,3.293.316,13.781-1,19-1.797,4.719-9,17-9,17l-6,76-51-12 19-41z" fill="none" stroke="#000" stroke-width="2.0833"/>
   <path d="m195.25,258.25c-.539,3.199-1.031,5.719-1,7-1.281,8.707-24.199,45.168-29,58-5.613,12.168-4.574,15.293-11,19-15.449,10.875-30,14-30,14-3.156,3.125-7.324-1.043-11-3-4.656-2.207-7.781,4.043-12,5-4.1133,1.125-8-3-8-3l-9,1c-4.3008,1.043-13.1562,10.418-18,6-5.5742-3.918-20.1562-13.293-23-13-3.4062-.293-12,2-12,2-6.6836,3.609-3.9062,9.168-8,10-4.2383,1.25-5.2812,2.293-9,6-4.61328,4.625.5938,16.082 3,19 .6758,1.707 5.0117,6.043 16,17 7.1133,6.645 7.4688,11.324 12,15 6.3906,6.852 6.0508,8.141 10,12 3.6914,3.082-.8242,3.082 4,11 4.8359,7.539 1.7734,9.098 5,16 0,0 12.0508,14.625 17,18 0,0 2.8633,3.918 1,5-1.2617,2.043 6,6 6,6l1,9 6,3 4-1 10,2-1-3h5l6,1v-4c16.949,1.543 25.172-2.414 39-10 18.051-9.293 28-6 28-6s29.895-11.809 61-15c6.164-.684 12.48-.988 19-1 48.074,1.77 102-10 102-10s17.754-4.453 33-7c5.598-.859 11.055-1.543 15-2 12.137.457 101.438-7.449 119-5 21.262,3.375 35.844,6.5 92,11 56.344,3.832 83.719-1.395 107-34 10.523-13.488 5.578-104.754-25-156h-514" fill="#f5f2e6"/>
   <path d="m709.25,258.25c-3.879-6.59-8.289-12.578-13-18-5.805-5.48-21.367-1.117-23-39-1.012-11.336-7.23-18.102-3-35 3.02-12.738 11.035-14.453 7-22-3.848-8.547-6.59-28.844-7-34 .066-5.461-1.164-20.8516-3-36-3.047-17.5977 3.199-26.5391 2-32-.68-9.3164-11.016,11.4219-7-12 .332-3.9375.898-6.4648 1-9l-32,10c1.715,2.5859 11.395,16.3789 13,20 6.012,15.418 4.648,70.145 0,85-6.238,18.695-36.766,33.746-36,69 0,0-29.344,17.145-44,14-13.988-2.582-50.871-17.371-55-21-1.27-.004-2.559-.199-4,0-27.906-3.457-25.824-10.75-46-7-19.406,4.582-75.656,8.75-89,8-13.738-1.332-57.402-11.816-64-20-23.699-31.332-19.531-41.75-18-49 1.234-12.113-.703-22.789-2-30-.566-9.5664-9.867-17.9219-10-26 .109-8.7148-5.91-26.9531-4-29 8.219-7.75 5.75-9.9531 1-12-5.336-1.2969-1-6-1-6-1.797-3.5234 2-10 2-10l-33,6-7,5c.563,2.4258 1.105,4.8516 2,7 1.965,7.7227 11,16 11,16s5.621,28.7344 7,33c1.734,4.5156-2.961,13.6016-3,22 .063,8.398.051,6.25-1,23-1.031,16.582 8.344,23.875-3,56-2.555,7.039-26.59,24.559-27,25-11.312,11.641-18.77,28.738-23,41-.559,2.738-1.215,5.039-2,7h514" fill="#f5f2e6"/>
   <path d="m509.25,198.25c-1.27-.004-2.559-.199-4,0-27.906-3.457-25.824-10.75-46-7-19.406,4.582-75.656,8.75-89,8-13.738-1.332-57.402-11.816-64-20-23.699-31.332-19.531-41.75-18-49 1.234-12.113-.703-22.789-2-30-.566-9.5664-9.867-17.9219-10-26 .109-8.7148-5.91-26.9531-4-29 8.219-7.75 5.75-9.9531 1-12-5.336-1.2969-1-6-1-6-1.797-3.5234 2-10 2-10l-33,6-7,5c.563,2.4258 1.105,4.8516 2,7 1.965,7.7227 11,16 11,16s5.621,28.7344 7,33c1.734,4.5156-2.961,13.6016-3,22 .063,8.398.051,6.25-1,23-1.031,16.582 8.344,23.875-3,56-2.555,7.039-26.59,24.559-27,25-11.312,11.641-18.77,28.738-23,41-1.762,6.516-2.898,11.633-3,14-1.281,8.707-24.199,45.168-29,58-5.613,12.168-4.574,15.293-11,19-15.449,10.875-30,14-30,14-3.156,3.125-7.324-1.043-11-3-4.656-2.207-7.781,4.043-12,5-4.1133,1.125-8-3-8-3l-9,1c-4.3008,1.043-13.1562,10.418-18,6-5.5742-3.918-20.1562-13.293-23-13-3.4062-.293-12,2-12,2-6.6836,3.609-3.9062,9.168-8,10-4.2383,1.25-5.2812,2.293-9,6-4.61328,4.625.5938,16.082 3,19 .6758,1.707 5.0117,6.043 16,17 7.1133,6.645 7.4688,11.324 12,15 6.3906,6.852 6.0508,8.141 10,12 3.6914,3.082-.8242,3.082 4,11 4.8359,7.539 1.7734,9.098 5,16 0,0 12.0508,14.625 17,18 0,0 2.8633,3.918 1,5-1.2617,2.043 6,6 6,6l1,9 6,3 4-1 10,2-1-3h5l6,1v-4c16.949,1.543 25.172-2.414 39-10 18.051-9.293 28-6 28-6s29.895-11.809 61-15c6.164-.684 12.48-.988 19-1 48.074,1.77 102-10 102-10s17.754-4.453 33-7c5.598-.859 11.055-1.543 15-2 12.137.457 101.438-7.449 119-5 21.262,3.375 35.844,6.5 92,11 56.344,3.832 83.719-1.395 107-34 11.844-15.293 4.031-129.875-38-174-5.805-5.48-21.367-1.117-23-39-1.012-11.336-7.23-18.102-3-35 3.02-12.738 11.035-14.453 7-22-3.848-8.547-6.59-28.844-7-34 .066-5.461-1.164-20.8516-3-36-3.047-17.5977 3.199-26.5391 2-32-.68-9.3164-11.016,11.4219-7-12 .332-3.9375.898-6.4648 1-9l-32,10c1.715,2.5859 11.395,16.3789 13,20 6.012,15.418 4.648,70.145 0,85-6.238,18.695-36.766,33.746-36,69 0,0-29.344,17.145-44,14-13.988-2.582-50.871-17.371-55-21z" fill="none" stroke="#000" stroke-width="2.0833"/>
   <path d="m739.25,222.25c.332,3.531-.707,20.199-2,27-.793,7.781 1.293,14.031 2,22 1.375,8.699 2.676,39.168 4,43 .762,4.5.762,73.25 0,84-1.324,10.082-12,17-12,17s3.387-59 2-77c-.699-17.418 2.168-39.551-2-54-4.168-14.719-3.125-17.844-2-36 .957-17.262 3.043-32.887 3-36 0,0 .043-3.137-2-14-2.125-9.969-5.25-1.113 0-18 5.168-17.488 4.645-21.656 2-32-2.562-9.449-3-10-3-10s9.813,17.219 10,30c0,0 .332,7.531-1,9-.75,1.656 7.063-8.762 6-20 0,0-3.105-21.574 1-27 3.188-6.031 6-10 6-10s-3.855,10.219-3,16c1.23,5.676 4,14 4,14s.875-7.801 0-11c-1.207-4.094-1-9-1-9s2.918-1.344 4,6c2.043,7.238 4,11 4,11l1-5c0,0 5.375,4.887 5,9-.668,4.219 1.938,17.762-5,31-7.645,13.844-9,15-9,15s9.168-6.887 10-9c1.25-3.094-.312,6.281-3,8-2.52,2.449-5.125,4.012-10,9-5.543,5.426-8.668,10.637-9,17"/>
   <path d="m115.25,472.25c7.406.145 5.844-.375 7,0 1.969.668 10.824,3.27 14,5 3.074,2.438 3.074,14.938 18,27 0,0 1.738,1.48 6,4 5.113,2.688 4,1 4,1s-.969-.918 4,1c5.449,2.25 9,2 9,2s-1.988-2.875 0-2c1.137.168-1.469,1.207 4,1 5.988.207 9-1 9-1s-.406-1.395 2-2c2.801-.437 5.406-1.48 5-3 .406-1.605-3-3-3-3l-1-1c0,0-1.324-1.25-1-3 .719-1.375 0-5 0-5l2-3-1-5-3-1c0,0 .113-3 0-5-.926-1.125-10.824-7.375-11-9-.863-2.543-5-2-5-2l-3-4-5,2-12-6-2,1h-3l-6-1-2,2c0,0-2.969,2.332-6,4-2.176,1.457 2.512-3.23 3-6 .551-2.437-2,0-2,0l-4,3c0,0 2.387-4.918 2-6-.656-2.043-3-1-3-1s-4.426,6.77-6,7c-1.551.813.531-4.918 1-6-.469-2.043-4-2-4-2" fill="#f5f2e6"/>
   <path d="m115.25,472.25c7.406.145 5.844-.375 7,0 1.969.668 10.824,3.27 14,5 3.074,2.438 3.074,14.938 18,27 0,0 1.738,1.48 6,4 5.113,2.688 4,1 4,1s-.969-.918 4,1c5.449,2.25 9,2 9,2s-1.988-2.875 0-2c1.137.168-1.469,1.207 4,1 5.988.207 9-1 9-1s-.406-1.395 2-2c2.801-.437 5.406-1.48 5-3 .406-1.605-3-3-3-3l-1-1c0,0-1.324-1.25-1-3 .719-1.375 0-5 0-5l2-3-1-5-3-1c0,0 .113-3 0-5-.926-1.125-10.824-7.375-11-9-.863-2.543-5-2-5-2l-3-4-5,2-12-6-2,1h-3l-6-1-2,2c0,0-2.969,2.332-6,4-2.176,1.457 2.512-3.23 3-6 .551-2.437-2,0-2,0l-4,3c0,0 2.387-4.918 2-6-.656-2.043-3-1-3-1s-4.426,6.77-6,7c-1.551.813.531-4.918 1-6-.469-2.043-4-2-4-2" fill="none" stroke="#000" stroke-width="2.0833"/>
   <path d="m577.25 50.25s-13.449-13.793-13-17c-0.449-3.043 7.887-4.082 15-5 7.469-1.168 13.719 3 17 4 2.969 1.082 7 3 7 3 0.137 5.375-1 10-1 10l-5-3-2 4-9-4-3 4-3 7-3-3"/>
   <path d="m343.25 35.25s4.926 0.168 9 2c4.262 2.332 3 7 3 7l1-12-2-4c-10.238-8.457-21-7-21-7s-19.449-4.582-25 1c-3.41 3.3789 15 28 15 28l1-9h5v-3l6-1 5-3 3 1"/>
   <path d="m270.25 19.25 4-2c-5.238-6.832-17.137-9.1758-23-9-5.762 0.34375-25.988-3.043-28 1-2.156 4.293 12.688 9.7617 11 14-1.387 4.9883-5.863-6.582-10-9-4.199-1.75-5 1-5 1s3.926 4.543 8 11c3.559 4.9922 9 11 9 11l3-6 5 1v-6l7-2 5 2s8.594-9.582 14-7"/>
   <path d="m660.25 23.25-8 2-2 3-3 2-4 6-5-2-2 4s-15.156-16.375-15-23c-0.156-5.875 6 1 6 1l7 7-6-12s11.293-1.4492 17-2c6.051-0.91797 13 2 13 2 4.512 5.418 2 12 2 12"/>
   <path d="m660.25 23.25-8 2-2 3-3 2-4 6-5-2-2 4s-15.156-16.375-15-23c-0.156-5.875 6 1 6 1l7 7-6-12s11.293-1.4492 17-2c6.051-0.91797 13 2 13 2 4.512 5.418 2 12 2 12" fill="none" stroke="#000" stroke-width="2.0833"/>
   <path d="m715.25,269.25c25.191,52.566 26.012,129.773 23,145-7.52,31.582-7.52,35.75-111,34-11.23-.562-20.816-1.965-29-3v-5c0,0-3.199-13.168 1-17 4.137-4.5 5.176-10.75 2-12-3.074-.832-7.238-3.957-2-10 5.176-6.457 10.387-15.832 2-16-8.281.168-13.488,1.207-11,4 1.676,3.457 1.676,6.582-1,7-3.574-.418-2.531,10-6,4-2.781-6.5-3.824-8.582-7-5-3.074,2.668-8,1-8,1s-14.863-15-9-30c6.637-14.168 10.801-12.082 9-25-2.363-12.082 3.887-8.957 12-14 8.551-5.375 14.801,2.957 22,4 7.387,1.043 12.594,3.125 12-7-1.488-10.707-7.738-26.332 1-33 7.926-5.832 21.469-11.043 30-8 8.137,3.207 7.781,18.566 20,3 10.012-13.332 7.926-9.168 16-13 8.594-4.5 7,1 7,1l4,1 4-8h10l9,2"/>
   <path d="m242.25,225.25c2.465,6.723 5.926,31 25,29 18.426-2.168 35.094,2 39,8 4.426,6.5 14.324,35.668 13,40-1.801,4-6.43,19.707-2,39 1.613,7.723 10,13 10,13s22.449,18.359 26,28c4.09,8.395 20.258,8.031 23,7 4.219-.707 8.387,2.418 8,6 .387,2.668-8.988,6.832-1,13 8.676,6.332 13.887,14.668 17,17 3.137,1.832 4.07,8.297 2,12-1.469,3.375-1.371,5.457-1,7-15.246,2.547-33,7-33,7s-53.926,11.77-102,10c-6.52.012-12.836.316-19,1 4.051-8.082 9.262-25.27 5-37-7.918-23.281-16.574-39.832-17-57 .426-7.832 3.883-14.211 4-20-.969-8.668-13.469-12.312-8-19 5.988-6.855 1.043-69.355-2-75-2.687-5.812-17-5-17-5-4.699-.031-15,2-15,2 4.23-12.262 11.688-29.359 23-41 8.395,1.988 20.113,10.844 22,15"/>
   <path d="m510.25,349.25c-11.031,9.082-29.781-21.125-53-27-22.613-6.625-45.531,15.25-52,25-6.031,9 4.387,14.207-23,6 0,0-20.531-9.5-25-16-3.863-6-13.238-8.082-2-15 11.676-7.668 8.551-9.75 9-24-.449-14.918-8.781-28.457-9-35 .219-5.957 11.676-57 25-63 .77-.504 1.336-.887 2-1 21.762-.863 61.422-4.223 77-8 19.039-3.512 18.285,2.738 42,6 1.961,5.098 3.965,10.859 5,17 5.469,26.375 3.387,37.832-2,49-5.031,11.75 3.301,20.082 9,25 4.719,5.5 8.887,51.332-3,61"/>
   <path d="m141.25,476.25c0,0 7.449,10.207 10,13 1.613,3.457 4.738,5.543 9,8 4.074,1.707 3.551,4.832 12,4 8.219-1.25 10-1 10-1l-11-2c0,0 2.969.707 6,0 3.219-1.375 6-8 6-8s-3.301,3.5-6,5c-3.551.582 3.738-2.543 4-8-.262-4.957-1-8-1-8s-.301,9.813-4,12c-4.637,1.98-.988-3.23-1-5 .012-1.355-1.551,3.332-5,5-2.801,1.457 4.488-8.957 3-12-.594-3.207-.594,4.082-5,7-3.926,3.332-.801-2.395-1-4 .199-1.52-1.887,1.082-3,3-.969,1.207-5,2-5,2l5-8-6,7c0,0 1.906-4.48 3-8 .988-3.77-4,8-4,8l1-11-3,8v-10l-3,6 3-9-6,8 4-11-6,9v-2l-2,1-1-3-3,4" fill="#6b575e"/>
   <path d="m66.25 362.25s5.8867 4.418 6 9c-0.1133 3.75-1 9-1 9" fill="none" stroke="#000" stroke-width="2.0833"/>
   <path d="m603.25 223.25s-6.113 5.918-7 15c-1.199 9.668-6.406 12.793-12 17" fill="none" stroke="#000" stroke-width="2.0833"/>
   <path d="m306.25 179.25s7.551 6.168 12 12c3.887 6.668-0.281 8.066 0 14-0.281 8.293 3.887 30.168 5 33 0 0 14.512 14.875 16 27" fill="none" stroke="#000" stroke-width="2.0833"/>
   <path d="m244.25 190.25s-2.582 17.043-12 30" fill="none" stroke="#000" stroke-width="2.0833"/>
   <path d="m258.25 112.25v-12l7-13" fill="none" stroke="#000" stroke-width="2.0833"/>
   <path d="m281.25 131.25-2-25-6-17" fill="none" stroke="#000" stroke-width="2.0833"/>
   <path d="m306.25 148.25v-26l11-10" fill="none" stroke="#000" stroke-width="2.0833"/>
   <path d="m613.25 139.25-7-31 4-8" fill="none" stroke="#000" stroke-width="2.0833"/>
   <path d="m631.25 137.25-8-21" fill="none" stroke="#000" stroke-width="2.0833"/>
   <path d="m660.25 175.25 5-23v-15l-7-12" fill="none" stroke="#000" stroke-width="2.0833"/>
   <path d="m90.25 477.25 7-1 1 4 6 2 2 4s3.387 3.332 7 1c2.637-1.832 7 0 7 0l-1 3" fill="none" stroke="#878289" stroke-width="2.0833"/>
   <path d="m68.25 424.25s-3.4062-3.418-7-7c-2.6562-2.668-9-7-9-7" fill="none" stroke="#878289" stroke-linecap="round" stroke-linejoin="round" stroke-width="2.0833"/>
   <path d="m202.25 350.25s1.137-7.543 1-22c0.137-14.707 2.219-22 2-33 0.219-11.918 12-34 12-34" fill="none" stroke="#878289" stroke-width="2.0833"/>
   <path d="m569.25 303.25s-2.324-11.582-1-19c0.762-7.168 4.926-15.5 7-20" fill="none" stroke="#878289" stroke-width="2.0833"/>
   <path d="m448.25 423.25s19.371-1.723 44-2c25.371 0.277 37.176-6.668 43-3 0 0 12.926 0.5 5-12-8.738-12.5-17.074-18.75-27-21" fill="none" stroke="#878289" stroke-width="2.0833"/>
   <path d="m617.25 231.25s3.844-16.668 2-29c-2.324-12.668 1.844-21 6-29 4.176-8.668 8.344-8.668 15-13" fill="none" stroke="#878289" stroke-width="2.0833"/>
   <path d="m141.25 440.25s6.926-1.707 6-13c-1.156-11.625 1-9 1-9s0.969-0.543 1-6c-0.031-4.957 11.426-14.332 5-24-6.074-9.082-8.156-21.582-14-24-6.656-1.75-13-3-13-3s-8.5-1.527-12 1" fill="none" stroke="#878289" stroke-width="2.0833"/>
   <path d="m65.25,386.25c0,0 6.1914,1.25 10,3 3.1367,2.418-2.0742,4.5 5-1 6.8164-5.609 8.8984-22.625 16-23 3.1289.375 9.828-2.496 18-3 5.645-.445 17.371.359 26,14" fill="none" stroke="#878289" stroke-width="2.0833"/>
   <path d="m444.25 412.25s-7.184-7.391 1-13c8.484-5.5 14.039-1.332 17-6 2.594-3.668 3.984-7.832 15-4" fill="none" stroke="#878289" stroke-width="2.0833"/>
   <path d="m684.25 253.25s-4.129-12.277-12-15c-8.797-2.832-11.574-5.609-12-11" fill="none" stroke="#878289" stroke-width="2.0833"/>
   <path d="m165.25 412.25s3.762-7.391 2-20c-1.016-12.391 4.539-8.223-4-18-8.129-9.668-13.684-12.445-10-18 4.648-5.555 7-1 7-1s4.594 9.332 6 5c1.371-4-2.797-15.109 1-21 4.539-5.223 11.484-3.832 10-9" fill="none" stroke="#878289" stroke-width="2.0833"/>
   <path d="m33.25,373.25c1.9063-.332 6.0742,1.23 6,5-.9687,3.52-.9687,6.645-3,3-2.1367-3.645-4.2187-7.293-7-9-2.4258-1.418-5.5508.668-7-1-1.6758-2.5-.8633-1.605 2-3 3.0938-1.582 13,3 13,3s-2.0937.625-4,0c-1.2187-.418 0,2 0,2"/>
   <path d="m97.25,444.25h-1l1-3-4,3 2-3-4,1 1-1h-1l-2,1 1-2-2,1 1-2c0,0-3.0508,2.938-5,2 0,0 2.6172,1.531 4,3 .3789.953 4.0859,1.605 7,2 .3438-.031.5273-.023 1,0 .2227.035.707.074 1,0 2.3633.152 4.246.168 5,0 0,0-13.9687,5.313-19-5-2.2773-4.668-2-7-2-7-.3906.027-.4375-.074-1,0-.0469.879-.7305,2.512-1,4 .6992,1.074-.3437.551 1,4 1.7813,4.363 3,5 3,5s-3.3008-1.676-4-5c-.3437-2.926-1.125-7.613 0-9 .957-1.738 2,0 2,0 1.043.344 2,0 2,0 1.4727-.785 2.7891-1.973 9-1 2.0313.059 5.5156,2.828 6,5 .6836-1.535.4414-3.133 0-4-3.0664-3.738-8.8008-3.27-11-3-3.4648.672-6.2617,1.363-6,1 0,0 .7539-.898 4-1-.1445-.418 9.9805-1.793 14,3 4.918,5.551 1.27,8.938-2,11"/>
   <path d="m84.25 436.25s0.9063-3.699 8-3c0 0-6.0508-2-8 2l-1 1-1-2 2 4v-2" fill="#e3dbe3"/>
   <path d="m90.25 439.25 1-1 1 1h-2" fill="#fff"/>
   <path d="m608.25,205.25c0,0 1.645,7.25-4,15 0,0-6.883,8.25-22,10-13.238,1.52-31.73-10.199-36-14-4.062-2.969-37-18-37-18 3.531-1.703 7.289-3.617 11-5 1.289-2.445 3.762-8.043 3-13-1.113-6.293-2.156-9.937 0-11 2.012-2.062 5.137-1.543 6,3 1.219,3.793.176,9 1,12 1.047,2.605 2.484,3.742 3,4 0,0 6.594.293 5-5-2.574-5.125 0-13 0-13s4.719-6.707 5-3c-.281,4.625 3.887,11.918 4,16-.113,4.25 9.98,8.234 10,2-.223-.926-.184-2.75-1-6-.781-6.332-1-10-1-10s2.301-6.75 5-2c3.551,5.668 2.512,6.707 3,10-.488,2.492 2.504,8.125 3,10 2.055.098 3.746.477 5,1 1.832-.43 2.969-1.414 3-4-.031-6.125 3-11 3-11s4.262-3.457 5,1c1.344,3.875.301,8.043 1,11 1.387,3.293 5,7 5,7s15.043,6.184 20,13" fill="#f8c9cf"/>
   <path d="m608.25,205.25c0,0 1.645,7.25-4,15 0,0-6.883,8.25-22,10-13.238,1.52-31.73-10.199-36-14-4.062-2.969-37-18-37-18 3.531-1.703 7.289-3.617 11-5 1.289-2.445 3.762-8.043 3-13-1.113-6.293-2.156-9.937 0-11 2.012-2.062 5.137-1.543 6,3 1.219,3.793.176,9 1,12 1.047,2.605 2.484,3.742 3,4 0,0 6.594.293 5-5-2.574-5.125 0-13 0-13s4.719-6.707 5-3c-.281,4.625 3.887,11.918 4,16-.113,4.25 9.98,8.234 10,2-.223-.926-.184-2.75-1-6-.781-6.332-1-10-1-10s2.301-6.75 5-2c3.551,5.668 2.512,6.707 3,10-.488,2.492 2.504,8.125 3,10 2.055.098 3.746.477 5,1 1.832-.43 2.969-1.414 3-4-.031-6.125 3-11 3-11s4.262-3.457 5,1c1.344,3.875.301,8.043 1,11 1.387,3.293 5,7 5,7s15.043,6.184 20,13z" fill="none" stroke="#000" stroke-width="2.0833"/>
  </g>
 </g>
</svg>
