<?xml version="1.0"?>
<svg xmlns="http://www.w3.org/2000/svg" xmlns:xlink="http://www.w3.org/1999/xlink" xmlns:svgjs="http://svgjs.com/svgjs" version="1.1" width="512" height="512" x="0" y="0" viewBox="0 0 512 512" style="enable-background:new 0 0 512 512" xml:space="preserve"><g><g xmlns="http://www.w3.org/2000/svg" id="outline"><path d="M115.882,416.235a52.118,52.118,0,1,0-52.117-52.117A52.177,52.177,0,0,0,115.882,416.235Zm0-88.235a36.118,36.118,0,1,1-36.117,36.118A36.158,36.158,0,0,1,115.882,328Z" fill="#ffffff" data-original="#000000" style=""/><path d="M392.924,424A32.925,32.925,0,1,0,360,391.076,32.962,32.962,0,0,0,392.924,424Zm0-49.849A16.925,16.925,0,1,1,376,391.076,16.945,16.945,0,0,1,392.924,374.151Z" fill="#ffffff" data-original="#000000" style=""/><path d="M472,344h-8V278.582A46.634,46.634,0,0,0,417.418,232H376V200a8,8,0,0,0-8-8h-8V156.281l20.438-13.625a8,8,0,0,0-8.876-13.312l-24,16A8,8,0,0,0,344,152v40h-8a8,8,0,0,0-8,8v32H309.953L266.619,87.553A8,8,0,0,0,272,80V62a22.025,22.025,0,0,0-22-22H102A22.025,22.025,0,0,0,80,62V80a8,8,0,0,0,5.963,7.728L56.646,212.33,17.854,258.879A8,8,0,0,0,24,272H64a8,8,0,0,0,5.657-2.343l9.1-9.1,5.808,8.713A99.884,99.884,0,1,0,211.8,392H320.023a72.907,72.907,0,0,0,145.8,0H472a24,24,0,0,0,0-48Zm-54.582-96A30.617,30.617,0,0,1,448,278.582v64.777a72.708,72.708,0,0,0-72-23.2V248ZM344,208h16V326.039a73.251,73.251,0,0,0-16,11.008ZM292.841,376l-16.762-32H296v32ZM74.1,208,102.336,88H120V208ZM136,88h16V208H136Zm32,0h82.048l43.2,144H278c-.566,0-1.127.019-1.685.05l-11.239-16.857L268.8,212.4a8,8,0,1,0-9.6-12.8l-24,18a8,8,0,1,0,9.6,12.8l7.457-5.593,8.462,12.693A29.98,29.98,0,0,0,248,262V290.4l-40.913-78.107A8,8,0,0,0,200,208H168ZM278,248h18v16H264v-2A14.015,14.015,0,0,1,278,248Zm-14,32h32v16H264Zm-.046,40.852A8.262,8.262,0,0,0,264,320v-8h32v16H267.7ZM96,62a6.006,6.006,0,0,1,6-6H250a6.006,6.006,0,0,1,6,6V72H96ZM32.9,376.312,53.2,362.774a8,8,0,1,0-8.875-13.312l-12.041,8.027a83.428,83.428,0,0,1,16.325-43.423l23.9,4.781a8.11,8.11,0,0,0,1.578.157,8,8,0,0,0,1.56-15.847L61.5,300.328a83.544,83.544,0,0,1,42.186-19.2l13.538,20.306a8,8,0,0,0,13.312-8.876l-8.027-12.041a83.429,83.429,0,0,1,43.423,16.326l-4.781,23.9a8,8,0,1,0,15.69,3.139l2.829-14.148a83.551,83.551,0,0,1,19.2,42.188l-20.306,13.537a8,8,0,1,0,8.876,13.312l12.041-8.027a83.419,83.419,0,0,1-16.326,43.422l-23.9-4.779a8,8,0,0,0-3.137,15.689l14.147,2.829a83.559,83.559,0,0,1-42.188,19.2L114.538,426.8a8,8,0,1,0-13.312,8.875l8.027,12.041a83.418,83.418,0,0,1-43.422-16.325l4.779-23.9a8,8,0,1,0-15.689-3.136L52.092,418.5A83.568,83.568,0,0,1,32.9,376.312Zm82.986-112.077a100.224,100.224,0,0,0-14.719,1.087L94.948,256h84.236l63.529,120H215.055a99.877,99.877,0,0,0-99.173-111.765ZM260.816,376,191.07,244.257A8,8,0,0,0,184,240H80a8,8,0,0,0-5.657,2.343L60.687,256H41.08l26.667-32H195.159l79.619,152ZM312,248h16V357.933A72.308,72.308,0,0,0,321.576,376H312Zm25.281,155.061,10.4-7.233a8,8,0,0,0-9.137-13.135l-2.105,1.465a56.518,56.518,0,0,1,8.7-23.949l12.436,2.233a8,8,0,0,0,2.828-15.748l-2.492-.447a56.708,56.708,0,0,1,23.034-10.815l7.233,10.4a8,8,0,0,0,13.135-9.137l-1.465-2.105a56.54,56.54,0,0,1,23.948,8.7l-2.232,12.437a8,8,0,1,0,15.748,2.828l.447-2.492a56.708,56.708,0,0,1,10.815,23.034l-10.4,7.232a8,8,0,1,0,9.137,13.135l2.105-1.465a56.54,56.54,0,0,1-8.7,23.949l-12.438-2.232a8,8,0,0,0-2.826,15.748l2.49.447a56.7,56.7,0,0,1-23.033,10.814l-7.232-10.4a8,8,0,1,0-13.135,9.137l1.465,2.105a56.513,56.513,0,0,1-23.949-8.7l2.232-12.437a8,8,0,0,0-15.748-2.826l-.447,2.49A56.709,56.709,0,0,1,337.281,403.061ZM472,376h-7.728a72.3,72.3,0,0,0-5.394-16H472a8,8,0,0,1,0,16Z" fill="#ffffff" data-original="#000000" style=""/><path d="M400,296a8,8,0,0,0,8-8V272a8,8,0,0,0-16,0v16A8,8,0,0,0,400,296Z" fill="#ffffff" data-original="#000000" style=""/><path d="M424,296a8,8,0,0,0,8-8V272a8,8,0,0,0-16,0v16A8,8,0,0,0,424,296Z" fill="#ffffff" data-original="#000000" style=""/></g></g></svg>
